<svg data-name="グループ 2564" xmlns="http://www.w3.org/2000/svg" width="30" height="29"><defs><clipPath id="a"><path data-name="長方形 2034" fill="none" d="M0 0h30v29H0z"/></clipPath></defs><g data-name="グループ 2563" clip-path="url(#a)" fill="#fb8c00"><path data-name="パス 8187" d="M14.485 29A14.493 14.493 0 010 14.5 14.488 14.488 0 0121 1.547a1.215 1.215 0 01-1.094 2.17 11.923 11.923 0 00-5.424-1.287A12.069 12.069 0 1026.543 14.5a12.211 12.211 0 00-.15-1.911 1.215 1.215 0 112.4-.382 14.658 14.658 0 01.18 2.293A14.494 14.494 0 0114.485 29"/><path data-name="パス 8188" d="M13.529 21.019h-.04a2.185 2.185 0 01-1.613-.757L7.318 14.98a2.186 2.186 0 113.308-2.86l2.965 3.436L26.215 1.97a2.186 2.186 0 113.2 2.98L15.129 20.322a2.184 2.184 0 01-1.6.7"/></g></svg>